<?xml version="1.0" standalone="no"?>
 <!DOCTYPE svg PUBLIC "-//W3C//DTD SVG 1.1//EN" 
 "http://www.w3.org/Graphics/SVG/1.1/DTD/svg11.dtd"> 
<svg
  xmlns:svg="http://www.w3.org/2000/svg"
  xmlns="http://www.w3.org/2000/svg"
  xmlns:xlink="http://www.w3.org/1999/xlink"
  version="1.1"
  width="121.0818mm" height="22.5806mm" viewBox="0.0000 0.0000 121.0818 22.5806">
<title>SVG Image created as powermanagement_redundant-Edge_Cuts.svg date 2023/02/16 13:34:46 </title>
  <desc>Image generated by PCBNEW </desc>
<g style="fill:#000000; fill-opacity:1.0000;stroke:#000000; stroke-opacity:1.0000;
stroke-linecap:round; stroke-linejoin:round;"
 transform="translate(0 0) scale(1 1)">
</g>
<g style="fill:#000000; fill-opacity:0.0; 
stroke:#000000; stroke-width:0.0000; stroke-opacity:1; 
stroke-linecap:round; stroke-linejoin:round;">
</g>
<g style="fill:#D0D2CD; fill-opacity:0.0; 
stroke:#D0D2CD; stroke-width:0.0000; stroke-opacity:1; 
stroke-linecap:round; stroke-linejoin:round;">
</g>
<g style="fill:#D0D2CD; fill-opacity:0.0; 
stroke:#D0D2CD; stroke-width:0.1000; stroke-opacity:1; 
stroke-linecap:round; stroke-linejoin:round;">
<path d="M11.5500 5.0500
L27.0500 5.0500
" />
<path d="M43.5500 15.0500
L66.5500 15.0500
" />
<path d="M98.5500 15.0500
L111.0500 15.0500
" />
<path d="M66.5500 5.0500
L82.0500 5.0500
" />
<path d="M66.5500 5.0500
L66.5500 15.0500
" />
<path d="M121.0500 0.0500
L111.0500 0.0500
" />
<path d="M28.0500 5.0500
L43.5500 5.0500
" />
<path d="M83.0500 15.0500
L83.0500 5.0500
" />
<path d="M27.0500 5.0500
L27.0500 15.0500
" />
<path d="M0.0500 22.5500
L0.0500 15.0500
" />
<path d="M121.0500 0.0500
L121.0500 22.5500
" />
<path d="M82.0500 5.0500
L82.0500 15.0500
" />
<path d="M83.0500 5.0500
L98.5500 5.0500
" />
<path d="M0.0500 15.0500
L11.5500 15.0500
" />
<path d="M82.0500 15.0500
L83.0500 15.0500
" />
<path d="M121.0500 22.5500
L0.0500 22.5500
" />
<path d="M11.5500 15.0500
L11.5500 5.0500
" />
<path d="M43.5500 5.0500
L43.5500 15.0500
" />
<path d="M28.0500 5.0500
L28.0500 15.0500
" />
<path d="M111.0500 15.0500
L111.0500 0.0500
" />
<path d="M98.5500 5.0500
L98.5500 15.0500
" />
<path d="M27.0500 15.0500
L28.0500 15.0500
" />
<g >
</g>
<g >
</g>
<g >
</g>
<g >
</g>
<g >
</g>
<g >
</g>
<g >
</g>
<g >
</g>
<g >
</g>
<g >
</g>
<g >
</g>
<g >
</g>
<g >
</g>
<g >
</g>
<g >
</g>
<g >
</g>
<g >
</g>
<g >
</g>
<g >
</g>
<g >
</g>
<g >
</g>
<g >
</g>
<g >
</g>
<g >
</g>
<g >
</g>
<g >
</g>
<g >
</g>
<g >
</g>
<g >
</g>
<g >
</g>
<g >
</g>
<g >
</g>
<g >
</g>
<g >
</g>
<g >
</g>
<g >
</g>
<g >
</g>
<g >
</g>
<g >
</g>
<g >
</g>
<g >
</g>
<g >
</g>
<g >
</g>
<g >
</g>
</g> 
</svg>
